<?xml version="1.0" encoding="utf-8"?>
<!-- Generator: Adobe Illustrator 22.1.0, SVG Export Plug-In . SVG Version: 6.00 Build 0)  -->
<svg version="1.1" id="Layer_1" xmlns="http://www.w3.org/2000/svg" xmlns:xlink="http://www.w3.org/1999/xlink" x="0px" y="0px"
	 viewBox="0 0 156.9 159.3" style="enable-background:new 0 0 156.9 159.3;" xml:space="preserve">
<style type="text/css">
	.st0{fill:#FFFFFF;}
	.st1{enable-background:new    ;}
</style>
<g id="Layer_2_1_">
</g>
<path class="st0" d="M126.7,100.7c-0.5,0-2.1-0.1-3.4-0.5c-2.8-0.9-4.2-2.4-5.8-4.4c-2.1-2.6-18.8-31.1-20.7-34.2L112.6,38
	c2.8-4.2,4.8-7,7.6-7.9c1.1-0.4,2.5-0.5,3.2-0.5s1.1-0.3,1.1-0.7c0-0.4-0.5-0.7-1.6-0.7c-3.3,0-7.4,0.3-8.2,0.3
	c-0.9,0-5-0.3-8.7-0.3c-1.2,0-1.7,0.3-1.7,0.7c0,0.5,0.3,0.7,0.9,0.7c0.5,0,2,0,2.9,0.3s1.7,1.1,1.7,1.7c0,1.2-0.3,2.1-0.9,3.6
	c-0.9,2.1-11.5,18.8-14.4,23c-5-8.5-9.1-15.6-13.2-23.4c-0.5-1.1-0.9-2.3-0.9-3.2c0-0.7,0.3-1.3,1.2-1.7c0.8-0.3,2.1-0.3,2.6-0.3
	s0.9-0.1,0.9-0.7c0-0.5-0.3-0.7-1.7-0.7c-3.3,0-8.3,0.3-9.3,0.3c-0.8,0-8.7-0.3-11.5-0.3c-1.3,0-1.7,0.1-1.7,0.7
	c0,0.4,0.3,0.7,0.9,0.7c0.7,0,2.5,0.1,4.1,0.7c3.3,1.2,5.4,4,7.7,7.8L89,64.3l-17.5,28c-1.5,2.3-2.6,4-3.8,5.2
	C65.5,98,62.9,98,60,98c-7.7,0-10.2-0.7-11.8-2.3c-1.7-1.7-2.1-8.1-2.1-22.5V55.8c0-15.2,0-18,0.1-21.2c0.1-3.4,0.9-5,3.8-5.6
	c1.2-0.1,2.5-0.3,3.2-0.3c0.4,0,0.8-0.1,0.8-0.5c0-0.5-0.5-0.8-1.6-0.8c-2.9,0-10.1,0.3-10.6,0.3s-6.6-0.3-11.1-0.3
	c-1.1,0-1.6,0.1-1.6,0.8c0,0.4,0.4,0.5,0.8,0.5c0.9,0,2.5,0.1,3.3,0.3c3.2,0.7,4,2.3,4.2,5.6c0.1,3.2,0.1,5.8,0.1,21.2V73
	c0,9.4,0,17.2-0.5,21.3c-0.4,2.8-0.9,5-2.8,5.4c-0.9,0.1-2.1,0.4-2.9,0.4c-0.5,0-0.8,0.3-0.8,0.5c0,0.5,0.5,0.8,1.6,0.8
	c1.5,0,3.6-0.1,5.6-0.1s3.6-0.1,4-0.1c2.8,0,5.8,0.1,10.1,0.3c4.1,0.1,9.3,0.3,16.3,0.3c0.5,0,0.9,0,1.3,0c2,0.1,6.6,0.3,8.5,0.3
	c0.7,0,1.2-0.1,1.2-0.7c0-0.4-0.3-0.7-0.8-0.7s-1.3-0.1-1.9-0.1c-0.9-0.1-1.6-0.9-1.6-1.9c0-0.9,0.4-2.8,1.3-4.4l15.2-26
	c5.8,9.9,11.5,19.6,16.8,29.3c0.9,1.6,0,2.5-0.5,2.8c-0.4,0.1-0.5,0.4-0.5,0.8c0,0.5,0.5,0.7,3,0.8c5,0.1,9.7,0.1,15.6,0.1
	c0.9,0,1.3-0.3,1.3-0.8C127.5,100.9,127.3,100.7,126.7,100.7z"/>
<g>
	<path class="st0" d="M41.3,9.3h34.6l2.6,2.6l2.6-2.6h34.6h18.5l18.5-0.5l-18.5-0.5h-18.5H81l-2.6-2.6l-2.6,2.6H41.3H22.8
		C16.5,8.4,10.3,8.6,4.2,8.8c6.2,0.3,12.5,0.4,18.5,0.5H41.3z"/>
	<path class="st0" d="M115.6,120.3H81.2l-2.8-2.8l-2.8,2.8H41.2H22.6c-6.2,0.1-12.5,0.3-18.5,0.5c6.2,0.3,12.5,0.4,18.5,0.5h18.5
		h34.7l2.5,2.5l2.5-2.5h34.7H134l18.5-0.5l-18.5-0.5H115.6z"/>
</g>
<g class="st1">
	<path class="st0" d="M23.9,134.7h1.5v13.6h8.3v1.2h-9.8C23.9,149.5,23.9,134.7,23.9,134.7z"/>
	<path class="st0" d="M51.5,144.6c0,1.9,1.1,4.2,3.6,4.2c1.9,0,2.9-1.1,3.3-2.8h1.3c-0.5,2.4-2,3.8-4.6,3.8c-3.4,0-4.9-2.6-4.9-5.7
		c0-2.8,1.5-5.7,4.9-5.7s4.8,3,4.8,6.1L51.5,144.6L51.5,144.6z M58.5,143.5c0-2-1.3-3.8-3.4-3.8c-2.1,0-3.3,1.9-3.6,3.8H58.5z"/>
	<path class="st0" d="M86.4,148.7c0,3.2-1.3,5.2-4.8,5.2c-2.1,0-4.2-0.9-4.5-3.3h1.3c0.3,1.6,1.7,2.1,3.2,2.1c2.4,0,3.4-1.5,3.4-4.1
		v-1.5l0,0c-0.7,1.3-1.9,2.3-3.4,2.3c-3.4,0-4.9-2.4-4.9-5.6c0-2.9,1.7-5.4,4.9-5.4c1.6,0,2.9,0.9,3.4,2.1l0,0v-1.9h1.3L86.4,148.7
		L86.4,148.7z M85.3,144.1c0-2.1-0.9-4.5-3.4-4.5s-3.6,2.3-3.6,4.5c0,2.1,1.1,4.2,3.6,4.2C84.1,148.4,85.3,146.3,85.3,144.1z"/>
	<path class="st0" d="M104.7,142.1c0.1-2.5,1.9-3.6,4.4-3.6c1.9,0,4,0.5,4,3.4v5.7c0,0.5,0.3,0.8,0.8,0.8c0.1,0,0.3,0,0.4-0.1v1.1
		c-0.3,0-0.5,0.1-0.8,0.1c-1.3,0-1.6-0.8-1.6-1.9l0,0c-0.9,1.5-1.9,2.3-4,2.3c-2,0-3.6-0.9-3.6-3.2c0-3,2.9-3.2,5.8-3.4
		c1.1-0.1,1.7-0.3,1.7-1.5c0-1.7-1.2-2.3-2.8-2.3c-1.6,0-2.8,0.8-2.9,2.5L104.7,142.1L104.7,142.1z M111.7,143.7L111.7,143.7
		c-0.3,0.3-0.8,0.4-1.2,0.5c-2.3,0.4-5,0.4-5,2.5c0,1.3,1.2,2.1,2.4,2.1c2,0,3.7-1.3,3.7-3.3L111.7,143.7L111.7,143.7L111.7,143.7z"
		/>
	<path class="st0" d="M131.6,134.7h1.3v14.8h-1.3V134.7z"/>
</g>
</svg>
